<svg id="Layer_1" data-name="Layer 1" xmlns="http://www.w3.org/2000/svg" viewBox="0 0 32.2 29.34"><defs><style>.cls-1{fill:#ce0e2d;}</style></defs><path class="cls-1" d="M15.71,3.29C23,3.29,28.82,8,28.82,13.87A9.2,9.2,0,0,1,26.3,20.1l2.44,6.06L18.41,24.09c-1.07,0-2.28.29-3.49.32h-.41c-7,0-11.91-4.81-11.91-10.54S8.47,3.29,15.71,3.29m0,2.87c-5.64,0-10.24,3.46-10.24,7.71s3.89,7.68,9,7.68h.33a15.8,15.8,0,0,0,1.58-.15c.62-.07,1.26-.15,1.92-.17h.32l.32.06,5.12,1-.46-1.13L23,19.51l1.21-1.33A6.48,6.48,0,0,0,26,13.87c0-4.25-4.6-7.71-10.25-7.71Z"/></svg>