<svg id="Layer_1" data-name="Layer 1" xmlns="http://www.w3.org/2000/svg" viewBox="0 0 32.2 41.71"><defs><style>.cls-1,.cls-3{fill:#ce0e2d;}.cls-2{fill:none;}.cls-3{font-size:9.15px;font-family:Bebas;}.cls-4{letter-spacing:0.02em;}.cls-5{letter-spacing:0.02em;}.cls-6{letter-spacing:0.03em;}</style></defs><path class="cls-1" d="M16.2,20.57c-1.4,0-1.83.48-1.87,2.05,0,1.26,1,1.25,1.72,1.27s1.88,0,2-1.15A1.78,1.78,0,0,0,16.2,20.57Z"/><path class="cls-1" d="M11.91,28.47c-.23-2.56.38-5.16.48-7.73-3.87-.51-6.13,0-8.3,2.58A15.38,15.38,0,0,0,11.91,28.47Z"/><path class="cls-1" d="M19.83,20.8c0,.44.12.88.14,1.32.1,2.12.25,4.22.29,6.33a15.36,15.36,0,0,0,7.85-5.25C26,20.74,23.48,20.17,19.83,20.8Z"/><path class="cls-1" d="M18.06,28.91c0-.6-.17-2.2-.27-2.79-.44-2.44-2.38-1.8-2.9-1.28s-.52,2.67-.73,4.08a14.75,14.75,0,0,0,1.89.12A16.68,16.68,0,0,0,18.06,28.91Z"/><path class="cls-2" d="M13,8.25c-.19,0-3.17,1.07-3.17,1.07s-.56,1-.18,1.53a11.69,11.69,0,0,0,1.67,1.48L15,11.26l1.85,0,4,.9,1.28-1.24-.54-2.59Z"/><path class="cls-2" d="M8.6,11.08a7.42,7.42,0,0,0,1.56,4.09l.4-2Z"/><path class="cls-2" d="M21.94,15a7.36,7.36,0,0,0,1.43-4.35c0-.07,0-.14,0-.21l-2.15,2.24A6.18,6.18,0,0,1,21.94,15Z"/><path class="cls-2" d="M13.19,7.39C13,7.39,9.73,9.6,9.73,9.6s-.47.74-.09,1.25a11.69,11.69,0,0,0,1.67,1.48L15,11.26l1.83,0,3.44.88L22.5,10,20.68,7.39Z"/><path class="cls-1" d="M16,3.21A7.39,7.39,0,0,0,8.58,10.6c0,.16,0,.32,0,.48l2,2.12-.4,2A7.37,7.37,0,0,0,21.94,15a6.18,6.18,0,0,0-.73-2.32l2.15-2.24A7.4,7.4,0,0,0,16,3.21Zm4.28,8.89-3.44-.88-1.83,0-3.67,1.07a11.69,11.69,0,0,1-1.67-1.48c-.38-.51.09-1.25.09-1.25S13,7.39,13.19,7.39h7.49L22.5,10Z"/><path class="cls-1" d="M16,2a8.7,8.7,0,0,1,.89,0c-3-.54-7.09.26-12.23,4.42-.49.4,2.14.33,2.14.33L5.91,8.56,7.36,9.92A8.64,8.64,0,0,1,16,2Z"/><path class="cls-1" d="M16.86,2a10.53,10.53,0,0,1,6.81,4.75l-.1,3.42-.21.22c0,.07,0,.14,0,.21A7.36,7.36,0,0,1,21.94,15,2.18,2.18,0,0,1,21.77,16c-.63,1.33-2.87,2.63-5.55,2.69A8,8,0,0,1,10,15.83l.13-.66A7.42,7.42,0,0,1,8.6,11.08l0,0L7.36,9.92c0,.23,0,.45,0,.68A8.65,8.65,0,1,0,16.86,2Z"/><path class="cls-1" d="M23.36,10.39l.21-.22.1-3.42A10.53,10.53,0,0,0,16.86,2a8.7,8.7,0,0,0-9.5,7.92l1.22,1.13,0,0c0-.16,0-.32,0-.48A7.39,7.39,0,0,1,16,3.21"/><path class="cls-1" d="M16,18a7.4,7.4,0,0,1-5.81-2.83l-.13.66a8,8,0,0,0,6.19,2.86c2.68-.06,4.92-1.36,5.55-2.69A2.18,2.18,0,0,0,21.94,15,7.4,7.4,0,0,1,16,18Z"/><text class="cls-3" transform="translate(4.95 40.12)"><tspan class="cls-4">C</tspan><tspan x="4.88" y="0">O</tspan><tspan class="cls-5" x="9.62" y="0">V</tspan><tspan class="cls-6" x="15.27" y="0">I</tspan><tspan x="17.6" y="0">D</tspan></text></svg>