<svg id="Layer_1" data-name="Layer 1" xmlns="http://www.w3.org/2000/svg" viewBox="0 0 26.62 26.26"><defs><style>.cls-1{fill:#ce0e2d;}</style></defs><path class="cls-1" d="M19.92,4.46H6.71a2.2,2.2,0,0,0-2.2,2.19V19.86a2.2,2.2,0,0,0,2.2,2.19H19.92a2.19,2.19,0,0,0,2.19-2.19V6.65A2.19,2.19,0,0,0,19.92,4.46ZM13.31,9.72a3.54,3.54,0,1,1-3.54,3.54A3.53,3.53,0,0,1,13.31,9.72ZM20,19.15a.87.87,0,0,1-.88.88H7.59a.87.87,0,0,1-.88-.88V11.66H8.06a5.63,5.63,0,0,0-.24,1.6,5.49,5.49,0,0,0,11,0,5.63,5.63,0,0,0-.23-1.6H20ZM20,8.77a.88.88,0,0,1-.88.88H17.82a.88.88,0,0,1-.88-.88V7.31a.87.87,0,0,1,.88-.88h1.33a.87.87,0,0,1,.88.88Z"/></svg>