<svg id="Layer_1" data-name="Layer 1" xmlns="http://www.w3.org/2000/svg" viewBox="0 0 36.23 30.25"><defs><style>.cls-1{fill:#ce0e2d;}</style></defs><path class="cls-1" d="M34.94,14.51A14.57,14.57,0,0,0,20.13.81a13.53,13.53,0,0,0-13.06,11L.6,15.41l7,3.56a14.58,14.58,0,0,0,3.92,6,14.38,14.38,0,0,0,10.15,3.88A13.54,13.54,0,0,0,34.94,14.51ZM29.69,23A11.82,11.82,0,0,1,13,23.36a12.17,12.17,0,0,1-3.41-5.45l-.15-.47L5.37,15.36l3.76-2.08.06-.53a11.38,11.38,0,0,1,2.91-6,11.83,11.83,0,0,1,16.69-.39A11.83,11.83,0,0,1,29.69,23Z"/><path class="cls-1" d="M22.59,18.57c-.28-.16-.95,0-1.25.09s-.9.26-1.26,0-1-2.35-1.18-3.55a7.67,7.67,0,0,1,.33-3.33,2,2,0,0,1,.95-.14,1.86,1.86,0,0,0,1.15-.36,12.57,12.57,0,0,0,1.16-3.51A2.1,2.1,0,0,0,21,6.65a3.65,3.65,0,0,0-2.9,1C16.85,9,16.29,11.09,16.46,15a11.9,11.9,0,0,0,2.85,7.29,3.32,3.32,0,0,0,3.41,1,2.68,2.68,0,0,0,1.41-1.15,8.64,8.64,0,0,0-.63-1.66A7.52,7.52,0,0,0,22.59,18.57Z"/></svg>